<svg width="379" height="353" viewBox="0 0 379 353" fill="none" xmlns="http://www.w3.org/2000/svg">
<path fill-rule="evenodd" clip-rule="evenodd" d="M185.248 18.4826C144.301 5.66829 102.198 -15.7049 59.0935 23.3336C15.9888 62.3722 -11.1108 96.5697 6.38937 140.817C23.8895 185.064 95.3233 157.504 116.079 197.051C136.834 236.598 91.2298 272.489 110.891 307.686C130.552 342.882 145.67 365.439 208.854 343.06C272.039 320.682 266.213 263.74 314.262 230.395C362.31 197.051 414.296 147.133 342.954 58.0611C271.612 -31.0107 226.195 31.2969 185.248 18.4826Z" stroke="#9E96C6"/>
<path fill-rule="evenodd" clip-rule="evenodd" d="M190.037 41.1953C156.694 30.7905 122.408 13.4362 87.3069 45.1341C52.2057 76.8321 30.1379 104.599 44.3887 140.527C58.6395 176.454 116.81 154.076 133.711 186.187C150.613 218.297 113.476 247.44 129.487 276.018C145.497 304.596 157.808 322.912 209.261 304.741C260.713 286.571 255.969 240.336 295.096 213.261C334.224 186.187 376.557 145.655 318.461 73.3317C260.365 1.00839 223.381 51.6 190.037 41.1953Z" stroke="#9E96C6"/>
<path fill-rule="evenodd" clip-rule="evenodd" d="M200.203 54.5554C173.267 46.0856 145.571 31.9586 117.215 57.7618C88.86 83.5651 71.0332 106.169 82.5453 135.415C94.0573 164.661 141.048 146.445 154.702 172.584C168.355 198.723 138.355 222.446 151.289 245.71C164.223 268.973 174.167 283.883 215.732 269.091C257.296 254.3 253.464 216.663 285.071 194.623C316.679 172.584 350.876 139.589 303.946 80.7156C257.015 21.8419 227.139 63.0253 200.203 54.5554Z" stroke="#9E96C6"/>
<path fill-rule="evenodd" clip-rule="evenodd" d="M210.233 72.3141C188.402 65.4871 165.954 54.1002 142.973 74.8985C119.991 95.6969 105.543 113.916 114.873 137.489C124.204 161.063 162.289 146.38 173.355 167.449C184.421 188.518 160.107 207.64 170.589 226.391C181.071 245.142 189.132 257.16 222.819 245.237C256.506 233.315 253.4 202.978 279.017 185.213C304.635 167.449 332.351 140.854 294.315 93.4001C256.278 45.9459 232.064 79.1411 210.233 72.3141Z" stroke="#9E96C6"/>
<path fill-rule="evenodd" clip-rule="evenodd" d="M212.15 80.6206C194.338 75.0349 176.023 65.7184 157.271 82.7352C138.52 99.752 126.732 114.659 134.344 133.946C141.957 153.233 173.032 141.22 182.061 158.458C191.09 175.696 171.251 191.341 179.804 206.683C188.357 222.025 194.933 231.858 222.419 222.103C249.905 212.348 247.371 187.528 268.273 172.993C289.175 158.458 311.789 136.699 280.754 97.8728C249.72 59.0466 229.963 86.2063 212.15 80.6206Z" stroke="#9E96C6"/>
<path fill-rule="evenodd" clip-rule="evenodd" d="M218.511 90.226C204.174 85.6625 189.433 78.051 174.34 91.9536C159.248 105.856 149.76 118.035 155.887 133.792C162.014 149.55 187.026 139.735 194.293 153.819C201.56 167.902 185.592 180.684 192.476 193.218C199.36 205.753 204.654 213.786 226.777 205.816C248.899 197.847 246.86 177.568 263.683 165.694C280.507 153.819 298.708 136.042 273.729 104.321C248.75 72.6002 232.848 94.7895 218.511 90.226Z" stroke="#9E96C6"/>
</svg>
